<svg width="16" height="18" viewBox="0 0 16 18" fill="none" xmlns="http://www.w3.org/2000/svg">
    <path d="M13.9062 2.25H10.8125V1.6875C10.8125 0.755508 10.057 0 9.125 0H6.875C5.94301 0 5.1875 0.755508 5.1875 1.6875V2.25H2.09375C1.31711 2.25 0.6875 2.87961 0.6875 3.65625V4.78125C0.6875 5.09193 0.939324 5.34375 1.25 5.34375H14.75C15.0607 5.34375 15.3125 5.09193 15.3125 4.78125V3.65625C15.3125 2.87961 14.6829 2.25 13.9062 2.25ZM6.3125 1.6875C6.3125 1.37742 6.56492 1.125 6.875 1.125H9.125C9.43508 1.125 9.6875 1.37742 9.6875 1.6875V2.25H6.3125V1.6875Z" fill="#007BFF"/>
    <path d="M1.75494 6.46875C1.65457 6.46875 1.57459 6.55263 1.57937 6.6529L2.04343 16.3927C2.08632 17.2941 2.82671 18 3.72882 18H12.2711C13.1732 18 13.9136 17.2941 13.9565 16.3927L14.4205 6.6529C14.4253 6.55263 14.3453 6.46875 14.245 6.46875H1.75494ZM10.25 7.875C10.25 7.56422 10.5017 7.3125 10.8125 7.3125C11.1232 7.3125 11.375 7.56422 11.375 7.875V15.1875C11.375 15.4983 11.1232 15.75 10.8125 15.75C10.5017 15.75 10.25 15.4983 10.25 15.1875V7.875ZM7.43745 7.875C7.43745 7.56422 7.68917 7.3125 7.99995 7.3125C8.31073 7.3125 8.56245 7.56422 8.56245 7.875V15.1875C8.56245 15.4983 8.31073 15.75 7.99995 15.75C7.68917 15.75 7.43745 15.4983 7.43745 15.1875V7.875ZM4.62495 7.875C4.62495 7.56422 4.87667 7.3125 5.18745 7.3125C5.49823 7.3125 5.74995 7.56422 5.74995 7.875V15.1875C5.74995 15.4983 5.49823 15.75 5.18745 15.75C4.87667 15.75 4.62495 15.4983 4.62495 15.1875V7.875Z" fill="#007BFF"/>
</svg>