<svg width="18" height="18" viewBox="0 0 18 18" fill="none" xmlns="http://www.w3.org/2000/svg">
    <path d="M14.25 9.03466C13.8352 9.03466 13.5 9.3707 13.5 9.78461V15.7847C13.5 16.1979 13.164 16.5346 12.75 16.5346H2.25C1.83595 16.5346 1.50005 16.1979 1.50005 15.7847V5.28461C1.50005 4.87138 1.83595 4.53465 2.25 4.53465H8.25005C8.66478 4.53465 9 4.19861 9 3.7847C9 3.37065 8.66478 3.03461 8.25005 3.03461H2.25C1.00951 3.03461 0 4.04411 0 5.28461V15.7847C0 17.0252 1.00951 18.0347 2.25 18.0347H12.75C13.9905 18.0347 15 17.0252 15 15.7847V9.78461C15 9.36988 14.6647 9.03466 14.25 9.03466Z" fill="#007BFF"/>
    <path d="M7.03228 8.35135C6.97982 8.40381 6.94453 8.47055 6.92956 8.54251L6.39933 11.1946C6.37461 11.3175 6.41361 11.4443 6.50205 11.5335C6.57332 11.6048 6.66932 11.643 6.76765 11.643C6.79154 11.643 6.8164 11.6408 6.84112 11.6356L9.49239 11.1053C9.56586 11.0902 9.63261 11.0551 9.68438 11.0025L15.6184 5.0685L12.9671 2.41736L7.03228 8.35135Z" fill="#007BFF"/>
    <path d="M17.4511 0.583569C16.72 -0.147709 15.5304 -0.147709 14.7998 0.583569L13.7619 1.6215L16.4132 4.27278L17.4511 3.23471C17.8051 2.8815 18.0002 2.41046 18.0002 1.90948C18.0002 1.4085 17.8051 0.937466 17.4511 0.583569Z" fill="#007BFF"/>
</svg>