<svg width="22" height="16" viewBox="0 0 22 16" fill="none" xmlns="http://www.w3.org/2000/svg">
    <path d="M10.9795 4.52295C9.32758 4.52295 7.98511 5.86542 7.98511 7.51733C7.98511 9.16925 9.32758 10.5117 10.9795 10.5117C12.6314 10.5117 13.9739 9.16925 13.9739 7.51733C13.9739 5.86542 12.6314 4.52295 10.9795 4.52295Z" fill="#007bff"/>
    <path d="M10.9794 0.03125C5.98877 0.03125 1.72678 3.1354 0 7.51721C1.72678 11.899 5.98877 15.0032 10.9794 15.0032C15.975 15.0032 20.2321 11.899 21.9588 7.51721C20.2321 3.1354 15.975 0.03125 10.9794 0.03125ZM10.9794 12.5078C8.22459 12.5078 5.98877 10.272 5.98877 7.51716C5.98877 4.76233 8.22459 2.52655 10.9794 2.52655C13.7343 2.52655 15.9701 4.76238 15.9701 7.51721C15.9701 10.272 13.7343 12.5078 10.9794 12.5078Z" fill="#007bff"/>
</svg>
