<svg width="23" height="20" viewBox="0 0 23 20" fill="none" xmlns="http://www.w3.org/2000/svg">
    <path d="M11.5 4.25C14.26 4.25 16.5 6.49 16.5 9.25C16.5 9.9 16.37 10.51 16.14 11.08L19.06 14C20.57 12.74 21.76 11.11 22.49 9.25C20.76 4.86 16.49 1.75 11.49 1.75C10.09 1.75 8.75 2 7.51 2.45L9.67 4.61C10.24 4.38 10.85 4.25 11.5 4.25ZM1.5 1.52L3.78 3.8L4.24 4.26C2.58 5.55 1.28 7.27 0.5 9.25C2.23 13.64 6.5 16.75 11.5 16.75C13.05 16.75 14.53 16.45 15.88 15.91L16.3 16.33L19.23 19.25L20.5 17.98L2.77 0.25L1.5 1.52ZM7.03 7.05L8.58 8.6C8.53 8.81 8.5 9.03 8.5 9.25C8.5 10.91 9.84 12.25 11.5 12.25C11.72 12.25 11.94 12.22 12.15 12.17L13.7 13.72C13.03 14.05 12.29 14.25 11.5 14.25C8.74 14.25 6.5 12.01 6.5 9.25C6.5 8.46 6.7 7.72 7.03 7.05ZM11.34 6.27L14.49 9.42L14.51 9.26C14.51 7.6 13.17 6.26 11.51 6.26L11.34 6.27Z" fill="#808080"/>
</svg>
